<?xml version="1.0" encoding="UTF-8" standalone="no"?>
<!-- Generator: Adobe Illustrator 12.0.1, SVG Export Plug-In  -->

<svg
   xmlns:dc="http://purl.org/dc/elements/1.1/"
   xmlns:cc="http://creativecommons.org/ns#"
   xmlns:rdf="http://www.w3.org/1999/02/22-rdf-syntax-ns#"
   xmlns:svg="http://www.w3.org/2000/svg"
   xmlns="http://www.w3.org/2000/svg"
   xmlns:sodipodi="http://sodipodi.sourceforge.net/DTD/sodipodi-0.dtd"
   xmlns:inkscape="http://www.inkscape.org/namespaces/inkscape"
   version="1.1"
   width="236.9375"
   height="284.03125"
   viewBox="-1 0 236.9375 284.03124"
   enable-background="new -1 0 289 288"
   xml:space="preserve"
   id="svg2"
   inkscape:version="0.48.2 r9819"
   sodipodi:docname="R3-3-DE.svg"><metadata
   id="metadata22"><rdf:RDF><cc:Work
       rdf:about=""><dc:format>image/svg+xml</dc:format><dc:type
         rdf:resource="http://purl.org/dc/dcmitype/StillImage" /><dc:title></dc:title></cc:Work></rdf:RDF></metadata><sodipodi:namedview
   pagecolor="#ffffff"
   bordercolor="#666666"
   borderopacity="1"
   objecttolerance="10"
   gridtolerance="10"
   guidetolerance="10"
   inkscape:pageopacity="0"
   inkscape:pageshadow="2"
   inkscape:window-width="1280"
   inkscape:window-height="1004"
   id="namedview20"
   showgrid="false"
   fit-margin-top="0"
   fit-margin-left="0"
   fit-margin-right="0"
   fit-margin-bottom="0"
   inkscape:zoom="1.638889"
   inkscape:cx="147.62055"
   inkscape:cy="159.10373"
   inkscape:window-x="-8"
   inkscape:window-y="-8"
   inkscape:window-maximized="1"
   inkscape:current-layer="svg2"
   showguides="true"
   inkscape:guide-bbox="true"><sodipodi:guide
     orientation="0,1"
     position="-631.17628,-2818.0679"
     id="guide2987" /></sodipodi:namedview>
<defs
   id="defs4">
</defs>







<path
   inkscape:connector-curvature="0"
   d="m 235.176,268.55885 c 0,8.09249 -6.62125,14.71375 -14.71375,14.71375 l -205.99875,0 c -8.09375,0 -14.715,-6.62124 -14.715,-14.71375 l 0,-253.083755 c 0,-8.09375 6.62125,-14.715 14.715,-14.715 l 205.99875,0 c 8.0925,0 14.71375,6.62125 14.71375,14.715 l 0,253.083755 z"
   style="fill:#ffffff;fill-opacity:1;fill-rule:nonzero;stroke:#000000;stroke-width:1.5;stroke-miterlimit:4;stroke-opacity:1;stroke-dasharray:none"
   id="path7845" /><path
   inkscape:connector-curvature="0"
   d="m 220.46186,4.684085 -205.99875,0 c -5.935,0 -10.79,4.85624 -10.79,10.79 l 0,253.085015 c 0,5.935 4.855,10.79 10.79,10.79 l 205.99875,0 c 5.935,0 10.79,-4.855 10.79,-10.79 l 0,-253.085015 c 0,-5.93375 -4.855,-10.79 -10.79,-10.79 m 4.905,263.875005 c 0,2.69749 -2.2075,4.90498 -4.905,4.90498 l -205.99875,0 c -2.6975,0 -4.905,-2.20749 -4.905,-4.90498 l 0,-253.085005 c 0,-2.6975 2.2075,-4.905 4.905,-4.905 l 205.99875,0 c 2.6975,0 4.905,2.2075 4.905,4.905 l 0,253.085005 z"
   style="fill:#000000;fill-opacity:1;fill-rule:nonzero;stroke:none"
   id="path7853" /><path
   inkscape:connector-curvature="0"
   d="m 128.639,58.543105 -0.025,-0.075 -10.405,-14.89499 c -0.33125,-0.4675 -0.59875,-0.99125 -0.78625,-1.5625 -1.0175,-3.0875 0.6625,-6.415 3.75,-7.43125 1.22375,-0.4025 2.48625,-0.3825 3.62625,-0.0175 l 65.25375,19.17001 -41.10125,54.186265 c -0.70125,0.97125 -1.70375,1.7375 -2.9275,2.14 -3.0875,1.0175 -6.415,-0.6625 -7.43125,-3.75 -0.18875,-0.57125 -0.28375,-1.15125 -0.29625,-1.7225 l -0.46875,-17.800015 c -28.7475,4.3675 -50.775,29.188765 -50.775,59.155015 l 0,41.2 -29.4275,0 0,-41.2 c 0,-43.045 30.4675,-78.972515 71.01375,-87.397515"
   style="fill:#000000;fill-opacity:1;fill-rule:nonzero;stroke:none"
   id="path7857" /><path
   inkscape:connector-curvature="0"
   d="m 66.74349,249.38022 c -2.72,3.5575 -6.4175,5.30125 -11.37,5.30125 -6.6275,0 -10.6725,-2.65 -13.5325,-8.43998 -1.95375,-3.97625 -3.34875,-10.255 -3.34875,-15.83502 0,-7.8125 1.95375,-14.78873 5.1625,-19.1825 2.72,-3.6975 6.62625,-5.30126 12.0675,-5.30126 13.04375,0 16.18375,13.95125 16.18375,24.48376 0,7.39375 -1.88375,14.78875 -5.1625,18.97375 m -11.02125,-35.855 c -4.185,0 -6.13875,1.67501 -7.8125,5.79 -1.11625,2.79 -1.81375,7.11501 -1.81375,11.09125 0,4.95249 1.04625,10.045 2.86,13.045 1.465,2.44124 3.4175,3.62624 6.4175,3.62624 3.4875,0 5.65,-1.8125 7.255,-5.92874 0.97625,-2.51125 1.8125,-7.11501 1.8125,-10.74251 0,-5.44125 -1.185,-16.88125 -8.71875,-16.88125"
   style="fill:#000000;fill-opacity:1;fill-rule:nonzero;stroke:none"
   id="path7861" /><path
   inkscape:connector-curvature="0"
   d="m 110.20674,253.84458 -17.9975,-31.87875 0,31.87875 -7.46375,0 0,-47.08499 7.46375,0 17.16,30.065 0,-30.065 7.395,0 0,47.08499 -6.5575,0 z"
   style="fill:#000000;fill-opacity:1;fill-rule:nonzero;stroke:none"
   id="path7865" /><path
   inkscape:connector-curvature="0"
   d="m 131.02837,253.84458 0,-47.08499 7.46375,0 0,40.17874 21.76375,0 0,6.90625 -29.2275,0 z"
   style="fill:#000000;fill-opacity:1;fill-rule:nonzero;stroke:none"
   id="path7869" /><path
   inkscape:connector-curvature="0"
   d="m 184.03337,233.33624 0,20.50872 -7.46375,0 0,-20.50873 -16.5325,-26.57752 8.92875,0 11.23125,18.13749 11.44,-18.13749 8.71875,0 -16.3225,26.57749 z"
   style="fill:#000000;fill-opacity:1;fill-rule:nonzero;stroke:none"
   id="path7873" /></svg>