<?xml version="1.0" encoding="UTF-8" standalone="no"?>
<!-- Generator: Adobe Illustrator 12.0.1, SVG Export Plug-In  -->

<svg
   xmlns:dc="http://purl.org/dc/elements/1.1/"
   xmlns:cc="http://creativecommons.org/ns#"
   xmlns:rdf="http://www.w3.org/1999/02/22-rdf-syntax-ns#"
   xmlns:svg="http://www.w3.org/2000/svg"
   xmlns="http://www.w3.org/2000/svg"
   xmlns:sodipodi="http://sodipodi.sourceforge.net/DTD/sodipodi-0.dtd"
   xmlns:inkscape="http://www.inkscape.org/namespaces/inkscape"
   version="1.1"
   width="282.59375"
   height="282.59375"
   viewBox="-1 0 282.59375 282.59374"
   enable-background="new -1 0 289 288"
   xml:space="preserve"
   id="svg2"
   inkscape:version="0.48.2 r9819"
   sodipodi:docname="AJAX1.svg"><metadata
   id="metadata22"><rdf:RDF><cc:Work
       rdf:about=""><dc:format>image/svg+xml</dc:format><dc:type
         rdf:resource="http://purl.org/dc/dcmitype/StillImage" /><dc:title></dc:title></cc:Work></rdf:RDF></metadata><sodipodi:namedview
   pagecolor="#ffffff"
   bordercolor="#666666"
   borderopacity="1"
   objecttolerance="10"
   gridtolerance="10"
   guidetolerance="10"
   inkscape:pageopacity="0"
   inkscape:pageshadow="2"
   inkscape:window-width="1280"
   inkscape:window-height="1004"
   id="namedview20"
   showgrid="false"
   fit-margin-top="0"
   fit-margin-left="0"
   fit-margin-right="0"
   fit-margin-bottom="0"
   inkscape:zoom="1.638889"
   inkscape:cx="130.65595"
   inkscape:cy="155.88079"
   inkscape:window-x="-8"
   inkscape:window-y="-8"
   inkscape:window-maximized="1"
   inkscape:current-layer="svg2"
   showguides="true"
   inkscape:guide-bbox="true"><sodipodi:guide
     orientation="0,1"
     position="-79.926279,-1054.693"
     id="guide2987" /></sodipodi:namedview>
<defs
   id="defs4">
</defs>







<path
   inkscape:connector-curvature="0"
   d="m 280.83975,264.26949 c 0,9.66251 -7.90625,17.56876 -17.56875,17.56876 l -245.9625,0 c -9.6625,0 -17.56875,-7.90625 -17.56875,-17.56876 l 0,-245.962525 c 0,-9.6625 7.90625,-17.56874 17.56875,-17.56874 l 245.9625,0 c 9.6625,0 17.56875,7.90624 17.56875,17.56874 l 0,245.962525 z"
   style="fill:#ffffff;fill-opacity:1;fill-rule:nonzero;stroke:#000000;stroke-width:1.5;stroke-miterlimit:4;stroke-opacity:1;stroke-dasharray:none"
   id="path3830" /><path
   inkscape:connector-curvature="0"
   d="m 263.27088,5.130465 -245.962505,0 c -7.24625,0 -13.17625,5.93 -13.17625,13.17625 l 0,245.962505 c 0,7.2475 5.93,13.17625 13.17625,13.17625 l 245.962505,0 c 7.24749,0 13.17625,-5.92875 13.17625,-13.17625 l 0,-245.962495 c 0,-7.24626 -5.92876,-13.17626 -13.17625,-13.17626 m 5.85624,259.138755 c 0,3.22125 -2.635,5.85625 -5.85624,5.85625 l -245.962505,0 c -3.22125,0 -5.85625,-2.635 -5.85625,-5.85625 l 0,-245.962495 c 0,-3.22 2.635,-5.85625 5.85625,-5.85625 l 245.962505,0 c 3.22124,0 5.85624,2.63625 5.85624,5.85625 l 0,245.962495 z"
   style="fill:#000000;fill-opacity:1;fill-rule:nonzero;stroke:none"
   id="path3838" /><path
   inkscape:connector-curvature="0"
   d="m 140.28987,56.37272 c -32.34375,0 -58.5625,26.21875 -58.5625,58.56253 l 0,37.33374 -17.29125,-5.18875 c -0.55,-0.17125 -1.135,-0.26375 -1.74125,-0.26375 -3.23375,0 -5.85625,2.6225 -5.85625,5.85625 0,1.2475 0.39,2.405 1.055,3.35498 l 38.47375,55.535 38.475,-55.535 c 0.665,-0.94999 1.055,-2.10624 1.055,-3.35498 0,-3.23375 -2.62125,-5.85625 -5.85625,-5.85625 -0.60625,0 -1.19125,0.0925 -1.74125,0.26375 l -17.29125,5.18875 0,-37.33375 c 0,-16.17127 13.11,-29.28127 29.28125,-29.28127 16.17125,0 29.28125,13.11 29.28125,29.28127 l 0,96.62748 29.28125,0 0,-96.62748 c 0,-32.34377 -26.21875,-58.56252 -58.5625,-58.56252"
   style="fill:#000000;fill-opacity:1;fill-rule:nonzero;stroke:none"
   id="path3842" /><path
   inkscape:connector-curvature="0"
   d="m 140.28987,18.306975 c -67.92124,0 -122.981245,55.059995 -122.981245,122.981275 0,67.92 55.060005,122.98124 122.981245,122.98124 67.92125,0 122.98125,-55.06125 122.98125,-122.98124 0,-67.92128 -55.06,-122.981275 -122.98125,-122.981275 M 40.733625,141.28825 c 0,-23.27126 7.985,-44.67628 21.363755,-61.62878 l 139.82125,139.82128 c -16.95126,13.37871 -38.35751,21.36374 -61.62876,21.36374 -54.98375,0 -99.556245,-44.5725 -99.556245,-99.55624 M 218.48238,202.917 78.66112,63.09572 c 16.95251,-13.37875 38.35751,-21.36375 61.62875,-21.36375 54.98375,0 99.55626,44.5725 99.55626,99.55628 0,23.27123 -7.985,44.67623 -21.36376,61.62871"
   style="fill:#bf2033;fill-opacity:1;fill-rule:nonzero;stroke:none"
   id="path3846" /></svg>