<?xml version="1.0" encoding="UTF-8" standalone="no"?>
<svg
   xmlns:dc="http://purl.org/dc/elements/1.1/"
   xmlns:cc="http://creativecommons.org/ns#"
   xmlns:rdf="http://www.w3.org/1999/02/22-rdf-syntax-ns#"
   xmlns:svg="http://www.w3.org/2000/svg"
   xmlns="http://www.w3.org/2000/svg"
   xmlns:sodipodi="http://sodipodi.sourceforge.net/DTD/sodipodi-0.dtd"
   xmlns:inkscape="http://www.inkscape.org/namespaces/inkscape"
   width="371.39395"
   height="371.38287"
   viewBox="0 0 1048.1562 1048.125"
   version="1.1"
   id="svg2"
   inkscape:version="0.48.2 r9819"
   sodipodi:docname="AJAX1.svg">
  <metadata
     id="metadata62">
    <rdf:RDF>
      <cc:Work
         rdf:about="">
        <dc:format>image/svg+xml</dc:format>
        <dc:type
           rdf:resource="http://purl.org/dc/dcmitype/StillImage" />
        <dc:title />
      </cc:Work>
    </rdf:RDF>
  </metadata>
  <defs
     id="defs60">
    <clipPath
       clipPathUnits="userSpaceOnUse"
       id="clipPath3564">
      <path
         inkscape:connector-curvature="0"
         d="m 63,43 512.622,0 0,313.129 L 63,356.129 63,43 z"
         id="path3566" />
    </clipPath>
  </defs>
  <sodipodi:namedview
     pagecolor="#ffffff"
     bordercolor="#666666"
     borderopacity="1"
     objecttolerance="10"
     gridtolerance="10"
     guidetolerance="10"
     inkscape:pageopacity="0"
     inkscape:pageshadow="2"
     inkscape:window-width="1280"
     inkscape:window-height="1004"
     id="namedview58"
     showgrid="false"
     fit-margin-top="0"
     fit-margin-left="0"
     fit-margin-right="0"
     fit-margin-bottom="0"
     inkscape:zoom="1.7262935"
     inkscape:cx="146.50096"
     inkscape:cy="148.57413"
     inkscape:window-x="-8"
     inkscape:window-y="-8"
     inkscape:window-maximized="1"
     inkscape:current-layer="svg2"
     showguides="true"
     inkscape:guide-bbox="true" />
  <polygon
     points="395,375 315,545 235,375 315,205 "
     id="polygon10"
     style="fill:none;stroke:#ffffff;stroke-width:40"
     transform="translate(19942.347,13008.986)" />
  <!-- draw the bicycle -->
  <!-- RIGHT -->
  <!-- LANE -->
  <!-- ONLY -->
  <path
     inkscape:connector-curvature="0"
     id="path3693"
     style="fill:#ffffff;fill-opacity:1;fill-rule:nonzero;stroke:none"
     d="M 168.92119,1043.1236 5.016791,879.18894 360.13539,524.0552 5.001691,168.90634 168.92119,4.98682 524.05489,360.13568 879.21889,4.98682 1043.1535,168.90634 687.97441,524.0552 1043.1233,879.17381 879.21889,1043.1236 524.05489,687.97472 168.92119,1043.1236 z" />
  <path
     inkscape:connector-curvature="0"
     id="path3697"
     style="fill:none;stroke:#000000;stroke-width:7.05555534;stroke-linecap:butt;stroke-linejoin:miter;stroke-miterlimit:4;stroke-opacity:1;stroke-dasharray:none"
     d="M 168.92119,1043.1236 5.016791,879.18894 360.13539,524.0552 5.001691,168.90634 168.92119,4.98682 524.05489,360.13568 879.21889,4.98682 1043.1535,168.90634 687.97441,524.0552 1043.1233,879.17381 879.21889,1043.1236 524.05489,687.97472 168.92119,1043.1236 z" />
  <path
     inkscape:connector-curvature="0"
     id="path3705"
     style="fill:#000000;fill-opacity:1;fill-rule:evenodd;stroke:none"
     d="m 953.1748,134.84496 -20.01712,-20.01712 -34.05785,34.07299 15.81094,15.81095 18.24691,-18.2469 4.22131,4.17591 c 9.10833,9.13858 8.07946,22.84645 -2.10309,33.02901 -5.96127,5.96126 -12.98163,8.07947 -21.75708,5.6284 -9.50171,-3.16219 -21.80248,-11.92252 -32.34817,-22.48333 -8.42746,-8.41234 -16.12869,-18.97315 -19.63885,-27.41575 -5.29554,-12.28564 -3.52533,-21.04596 4.56929,-29.14057 7.71635,-7.71635 15.06956,-8.79059 28.09657,-4.2213 l 9.12346,-21.07623 c -22.49845,-9.12345 -37.93115,-6.30925 -53.40926,9.13858 -11.24165,11.22654 -15.78068,23.54244 -14.37358,36.87206 2.08794,15.44783 13.32961,35.82808 29.50368,51.98703 12.28564,12.30077 27.03751,22.15047 40.03427,26.6895 18.62514,6.70263 33.08951,3.61609 48.17423,-11.51401 18.26204,-18.26204 18.23178,-45.02718 -0.0756,-63.28922 m -88.42031,148.13883 -100.11588,-100.10076 -15.81096,15.79583 63.93981,63.93981 -100.44873,-27.40061 -15.81096,15.81095 100.131,100.11589 15.79584,-15.82609 -67.78286,-67.78286 106.07714,29.51883 14.0256,-14.07099 z M 744.37943,403.40427 644.26355,303.27326 l -16.17407,16.15895 100.11588,100.10075 16.17407,-16.12869 z m -90.20564,32.55998 c -39.35341,-39.33828 -74.10724,20.01712 -94.13951,2.82933 -9.8497,-8.45775 -3.87331,-20.01715 3.8733,-27.05264 11.58968,-10.87853 23.52731,-5.99152 23.52731,-5.99152 l 9.83457,-18.27716 c -17.20291,-7.35322 -34.78408,-5.96127 -48.80971,8.10974 -17.92915,17.92918 -23.90555,38.59688 -4.25154,58.28115 16.53718,16.5372 35.85834,9.12345 44.28581,5.62841 18.24688,-7.73151 35.81292,-21.06112 49.15769,-7.73151 8.44259,8.45775 8.44259,21.09137 -0.71112,30.22996 -9.47143,9.47143 -22.46819,11.93766 -36.16093,6.65725 l -9.45634,20.74336 c 21.74198,8.42747 44.64894,6.00665 61.88213,-11.16601 8.39722,-8.45772 13.26911,-19.04881 13.94994,-29.59447 0.72627,-11.93766 -3.82789,-23.54244 -12.9816,-32.66589 M 547.83943,542.34399 c -39.36854,-39.39879 -74.13754,19.98686 -94.15464,2.75367 -9.8345,-8.41234 -3.8733,-19.98686 3.8885,-27.02235 11.5896,-10.8937 23.5121,-5.9764 23.5121,-5.9764 l 9.8346,-18.26203 c -17.2181,-7.36837 -34.7841,-5.9764 -48.8249,8.06433 -17.8837,17.92918 -23.8752,38.62716 -4.2061,58.32655 16.5069,16.52208 35.8129,9.13858 44.2555,5.61326 18.26207,-7.73148 35.82812,-21.07621 49.17286,-7.73148 8.44259,8.45772 8.42746,21.09137 -0.71112,30.22995 -9.48656,9.48657 -22.48332,11.95277 -36.19114,6.67239 l -9.4564,20.72823 c 21.77225,8.38206 44.66408,6.02178 61.88215,-11.21142 8.41234,-8.41234 13.28423,-19.0034 13.98021,-29.54909 0.72625,-11.93763 -3.85817,-23.54244 -12.98162,-32.63561 M 399.33749,648.64807 c 7.7315,7.73148 15.7958,19.33629 18.958,26.71976 5.2804,12.27051 4.5693,20.7131 -2.7991,28.08147 -6.3243,6.32438 -13.0118,8.06433 -21.4393,5.96127 -10.1977,-2.4511 -23.1944,-11.24167 -33.7099,-21.77223 -8.4426,-8.41234 -16.1589,-18.98828 -19.6994,-27.40062 -5.2501,-12.28564 -4.191,-21.04596 3.9036,-28.42946 6.3093,-5.64351 12.2705,-7.38349 20.698,-5.26527 10.5608,2.78395 22.8313,10.87853 34.0881,22.10508 m 15.811,-15.81096 c -12.6488,-12.64875 -27.7638,-22.81618 -40.7757,-27.38547 -18.61,-5.97639 -32.9987,-2.82933 -45.6475,9.81942 -11.5897,11.58968 -16.1438,23.20959 -14.4038,36.87208 2.8141,16.1892 13.3447,35.11694 29.8668,51.65414 11.9376,11.96792 28.0815,22.52873 40.7453,26.70463 18.2621,6.30925 32.7264,3.25298 46.7823,-10.80287 10.5306,-10.57594 15.0393,-22.22613 12.9211,-35.57087 -1.7551,-15.79583 -13.6927,-35.44985 -29.4885,-51.29106 M 261.01809,742.7573 c 4.2061,4.14565 5.9612,10.81803 4.2213,16.80955 -1.044,3.8733 -2.4662,6.00665 -7.3835,10.87854 l -18.958,19.0034 -24.5864,-24.60153 18.958,-18.95803 c 5.2804,-5.29553 7.0506,-6.35463 10.8936,-7.39862 5.9764,-1.75509 12.6337,-0.0141 16.855,4.26669 m 89.9182,54.05986 -64.2727,-29.17085 c 4.9021,-13.34474 0.7111,-30.18454 -9.8346,-40.74536 -10.1825,-10.16742 -27.0526,-14.40386 -40.0645,-9.84969 -7.3381,2.4662 -13.3296,7.03549 -21.0459,14.76699 l -33.0291,33.02901 100.1159,100.131 15.7959,-15.85634 -43.5596,-43.55957 18.9731,-18.97315 59.7337,27.446 17.1878,-17.21804 z m -138.9851,98.27001 -20.7585,9.50168 c 4.2364,11.92254 2.8293,20.33488 -3.8431,27.00723 -7.0203,7.02039 -14.0558,9.12346 -22.8162,7.39863 -10.1977,-2.48133 -23.5727,-10.90879 -34.4663,-21.80246 -8.3972,-8.42747 -15.7959,-18.62517 -19.2909,-27.03751 -5.2653,-12.33102 -3.5102,-21.06109 4.5693,-29.14057 7.7314,-7.74661 12.9967,-8.8057 27.0375,-5.9764 l 8.4123,-21.09134 c -20.7282,-7.3835 -36.5089,-4.19105 -51.638999,10.89367 -11.2114,11.2568 -15.7959,23.55756 -14.3888,36.87205 1.7551,15.79583 13.3599,35.82808 29.155699,51.62392 12.6488,12.64875 28.1118,22.5287 41.4565,26.71975 18.61,5.9764 33.8007,2.19386 48.5374,-12.60336 14.4038,-14.35848 16.8095,-31.65219 8.0341,-52.36529" />
  <path
     inkscape:connector-curvature="0"
     id="path3709"
     style="fill:#000000;fill-opacity:1;fill-rule:evenodd;stroke:none"
     d="m 391.77239,491.76102 14.767,-14.73671 -46.3738,-46.40403 85.349,-85.34891 -15.7959,-15.79581 -100.1159,100.13101 62.1696,62.15445 z m -102.3854,-102.40052 100.1159,-100.11588 -16.1589,-16.14382 -100.1159,100.11588 16.1589,16.14382 z m -35.9945,-124.52074 -20.0322,-19.98686 38.2942,-17.95943 -18.262,37.94629 z m -11.9528,76.55831 65.6949,-134.50659 -15.7958,-15.81096 -134.5368,65.71003 16.8398,16.85493 37.9462,-18.27716 31.2588,31.24367 -18.2771,37.94628 16.87,16.8398 z m -54.9676,-198.94569 c -4.1911,4.19103 -10.8937,5.96125 -16.855,4.20616 -3.8733,-1.0591 -5.9763,-2.45107 -10.8936,-7.38349 l -18.9732,-18.95801 24.6016,-24.58642 18.958,18.95802 c 5.2955,5.26527 6.3244,7.02037 7.3835,10.87854 1.7399,5.97639 0,12.6639 -4.2213,16.8852 m -54.0901,89.90306 29.1557,-64.27267 c 13.3296,4.90215 30.2148,0.69598 40.7453,-9.83457 10.1977,-10.19769 14.4039,-27.03749 9.8346,-40.04938 -2.4662,-7.38349 -7.0204,-13.34475 -14.7518,-21.07623 l -33.0291,-33.01388 -100.100699,100.11588 15.8109,15.81096 43.559599,-43.55957 18.9732,18.94289 -27.4158,59.73364 17.2181,17.20293 z" />
  <path
     inkscape:connector-curvature="0"
     id="path3713"
     style="fill:#000000;fill-opacity:1;fill-rule:evenodd;stroke:none"
     d="m 919.88858,919.39364 c -13.35987,13.35989 -27.41575,21.1065 -39.35338,21.07624 -5.64354,0.0454 -9.80431,-2.08796 -15.11498,-7.33811 l -15.79583,-15.84122 68.146,-68.14597 17.8989,17.92918 c 4.23643,4.1759 5.97639,9.47143 5.99152,14.38873 -0.34801,10.19768 -8.44259,24.58641 -21.77223,37.93115 m 16.15897,16.15894 c 19.65398,-19.66911 29.48855,-41.44134 28.08145,-61.1256 -1.04397,-9.47144 -3.84305,-14.38874 -14.0256,-24.60154 l -32.34817,-32.28763 -100.08559,100.131 30.54764,30.53255 c 2.4511,2.45107 4.5693,4.56929 5.62842,5.65864 5.61326,4.87192 12.64875,8.41234 20.03225,8.71497 20.00199,2.48132 42.15245,-6.99011 62.1696,-27.02239 m -120.01198,-108.04403 -20.01712,-20.0474 38.26403,-17.88378 -18.24691,37.93118 z m -11.95279,76.55831 65.6949,-134.50661 -15.81094,-15.82609 -134.53685,65.6949 16.87006,16.87006 37.91602,-18.29229 31.27391,31.27392 -18.26203,37.93117 16.85493,16.85494 z m -62.0334,-161.78618 c -7.73148,7.71635 -19.32113,15.81097 -26.70463,18.92774 -12.28564,5.26528 -20.72824,4.59958 -28.09661,-2.81418 -6.30924,-6.27899 -8.07945,-12.9665 -5.97639,-21.37884 2.46623,-10.19767 11.24167,-23.19443 21.78736,-33.74012 8.42746,-8.42746 18.95802,-16.15894 27.38549,-19.63888 12.31589,-5.32579 21.10649,-4.22128 28.45971,3.84305 5.62839,6.32437 7.36837,12.25539 5.28041,20.74336 -2.82934,10.51543 -10.89367,22.8162 -22.13534,34.05787 m 15.82609,15.79584 c 12.61849,-12.63365 22.80107,-27.76375 27.38549,-40.71513 5.97636,-18.64027 2.81418,-33.05926 -9.83457,-45.69291 -11.60481,-11.60478 -23.20959,-16.14381 -36.88721,-14.3887 -16.17407,2.78392 -35.13209,13.34474 -51.65414,29.82141 -11.95279,11.95278 -22.4531,28.11173 -26.68951,40.7605 -6.30924,18.27717 -3.22272,32.74154 10.83316,46.78229 10.53053,10.53053 22.19585,15.08469 35.55574,12.93622 15.79581,-1.77021 35.46495,-13.70787 51.29104,-29.50368 M 678.23061,634.22149 c -4.19103,4.19106 -10.87854,5.97639 -16.85493,4.19106 -3.87331,-1.02887 -5.99153,-2.43598 -10.87854,-7.35325 l -18.97315,-18.97315 24.58641,-24.60153 18.98827,18.97315 c 5.25016,5.26528 6.30925,7.02036 7.35325,10.86341 1.73995,5.99152 0,12.67903 -4.22131,16.90031 m -54.07499,89.93333 29.1406,-64.30292 c 13.37499,4.93239 30.19967,0.68083 40.76048,-9.83457 10.18255,-10.21283 14.38873,-27.05264 9.83457,-40.0494 -2.45107,-7.36834 -7.05065,-13.34473 -14.73672,-21.07621 l -33.0139,-33.01388 -100.131,100.11588 15.82609,15.78068 43.54443,-43.54443 18.97315,18.97315 -27.40062,59.74876 17.20292,17.20294 z" />
</svg>
