<?xml version="1.0" encoding="UTF-8" standalone="no"?>
<!-- Created with Inkscape (http://www.inkscape.org/) -->

<svg
   xmlns:dc="http://purl.org/dc/elements/1.1/"
   xmlns:cc="http://creativecommons.org/ns#"
   xmlns:rdf="http://www.w3.org/1999/02/22-rdf-syntax-ns#"
   xmlns:svg="http://www.w3.org/2000/svg"
   xmlns="http://www.w3.org/2000/svg"
   xmlns:sodipodi="http://sodipodi.sourceforge.net/DTD/sodipodi-0.dtd"
   xmlns:inkscape="http://www.inkscape.org/namespaces/inkscape"
   width="550.10309"
   height="474.625"
   id="svg2"
   sodipodi:version="0.32"
   inkscape:version="0.48.2 r9819"
   version="1.0"
   sodipodi:docname="AJAX1.svg"
   inkscape:output_extension="org.inkscape.output.svg.inkscape">
  <defs
     id="defs4">
    <inkscape:perspective
       sodipodi:type="inkscape:persp3d"
       inkscape:vp_x="0 : 300.5 : 1"
       inkscape:vp_y="0 : 1000 : 0"
       inkscape:vp_z="601 : 300.5 : 1"
       inkscape:persp3d-origin="300.5 : 200.33333 : 1"
       id="perspective3380" />
    <inkscape:perspective
       id="perspective3990"
       inkscape:persp3d-origin="375 : 250 : 1"
       inkscape:vp_z="750 : 375 : 1"
       inkscape:vp_y="0 : 1000 : 0"
       inkscape:vp_x="0 : 375 : 1"
       sodipodi:type="inkscape:persp3d" />
  </defs>
  <sodipodi:namedview
     id="base"
     pagecolor="#ffffff"
     bordercolor="#666666"
     borderopacity="1.0"
     gridtolerance="10000"
     guidetolerance="10"
     objecttolerance="10"
     inkscape:pageopacity="0.0"
     inkscape:pageshadow="2"
     inkscape:zoom="1.2866667"
     inkscape:cx="180.26741"
     inkscape:cy="237.868"
     inkscape:document-units="px"
     inkscape:current-layer="layer1"
     width="601px"
     height="601px"
     inkscape:window-width="1280"
     inkscape:window-height="1004"
     inkscape:window-x="-8"
     inkscape:window-y="-8"
     showgrid="false"
     fit-margin-top="0"
     fit-margin-left="0"
     fit-margin-right="0"
     fit-margin-bottom="0"
     inkscape:window-maximized="1" />
  <metadata
     id="metadata7">
    <rdf:RDF>
      <cc:Work
         rdf:about="">
        <dc:format>image/svg+xml</dc:format>
        <dc:type
           rdf:resource="http://purl.org/dc/dcmitype/StillImage" />
      </cc:Work>
    </rdf:RDF>
  </metadata>
  <g
     inkscape:label="Layer 1"
     inkscape:groupmode="layer"
     id="layer1"
     transform="translate(-83.314389,-45.5625)">
    <rect
       style="color:#000000;fill:#000000;fill-opacity:1;fill-rule:nonzero;stroke:none;stroke-width:0.8735441;marker:none;visibility:visible;display:inline;overflow:visible"
       id="rect3653"
       width="0"
       height="27.202072"
       x="578.73834"
       y="298.1684"
       rx="249.48199"
       ry="27.202072" />
    <path
       d="m 383.96058,505.42037 245.54115,-415.788681 0.33317,0 c 3.33137,-5.99698 3.33137,-13.31268 1.99868,-19.98984 -2.33204,-13.64584 -15.3255,-23.32148 -28.98516,-23.32148 l 0.33318,0 -489.4165,0 0.33316,0 c -0.33316,0 -0.33316,0 -0.33316,0 l 0,0 c -5.99677,0.33317 -11.32755,1.34652 -16.324979,4.66429 -8.995371,5.99699 -13.992871,16.32504 -13.326523,26.98629 0.333166,4.99742 2.332037,9.32858 4.664074,13.6736 l 0.333167,0 244.208501,414.122851 0.33316,0 c 4.66407,8.64841 14.99236,13.65974 24.98721,13.65974 9.99486,0 19.98979,-5.33079 25.32043,-14.00677 l 0.33316,0 -0.33316,0 z"
       style="font-style:normal;font-variant:normal;font-weight:normal;font-stretch:normal;letter-spacing:normal;word-spacing:normal;text-anchor:start;fill:#ffffff;fill-opacity:1;stroke:#000000;stroke-width:1.49999893000000010;stroke-linecap:butt;stroke-linejoin:miter;stroke-miterlimit:10.43299961000000000;stroke-opacity:1;stroke-dasharray:none;stroke-dashoffset:0"
       id="path14"
       inkscape:connector-curvature="0" />
    <path
       id="path16"
       d="m 114.11357,53.66463 c -2.99874,0.31929 -6.01116,0.65246 -8.6762,1.66583 -8.329091,3.31777 -13.673625,11.65393 -13.673625,20.64936 0,4.34505 1.346375,7.99601 3.678413,11.66081 l -0.347041,0 244.876413,414.09778 -0.31235,0 c 3.99809,6.34381 11.65386,10.02971 18.98347,10.02971 7.32961,0 14.9855,-3.68561 18.98345,-10.02971 l -0.31234,0 245.84814,-415.7636 -0.31235,0 c 2.6654,-4.31726 2.6654,-10.01584 1.66605,-14.68014 -1.66605,-10.32809 -11.3485,-17.63004 -21.34336,-17.63004 l -0.31233,0 -488.43405,0 -0.31233,0 z m 101.65008,58.92876 c 1.76973,-0.0106 3.52578,0.0347 5.27535,0.0347 l 275.86771,0 c 7.31557,-0.0185 17.74631,-0.58322 23.32154,4.65045 2.99874,3.33164 5.64324,8.33612 5.30989,13.0143 -0.66631,6.66326 -4.98375,12.65342 -7.98205,18.63648 l -0.34706,0 -137.56945,233.21631 -0.34704,0 c -3.66475,6.33012 -8.32226,15.65187 -15.6518,17.66474 -4.33144,1.33269 -10.00882,0.98565 -13.67362,-1.66606 -5.66342,-3.66472 -8.97464,-10.33511 -11.9731,-15.9989 l -0.34705,0 L 200.04282,148.9291 c -3.66474,-6.33012 -9.98104,-15.3118 -7.98206,-22.62753 0.99934,-4.33116 4.33144,-9.36337 8.32909,-11.34848 4.74759,-2.00939 10.06441,-2.32804 15.37417,-2.35992 z"
       style="font-style:normal;font-variant:normal;font-weight:normal;font-stretch:normal;letter-spacing:normal;word-spacing:normal;text-anchor:start;fill:#af1e2d;fill-opacity:1;stroke:none"
       inkscape:connector-curvature="0" />
    <path
       transform="matrix(1.3881777,0,0,-1.3881849,-66.142656,1017.7296)"
       style="font-style:normal;font-variant:normal;font-weight:normal;font-stretch:normal;letter-spacing:normal;word-spacing:normal;text-anchor:start;fill:#af1e2d;fill-opacity:1;fill-rule:nonzero;stroke:none"
       d="m 266.16,607.85 8.64,19.2 0,0 -5.52,0 -5.76,-12.48 -5.76,12.48 -5.28,0 8.64,-19.2 0,-15.6 5.04,0 z"
       id="polygon148"
       inkscape:connector-curvature="0" />
    <path
       transform="matrix(1.3881777,0,0,-1.3881849,-66.142656,1017.7296)"
       style="font-style:normal;font-variant:normal;font-weight:normal;font-stretch:normal;letter-spacing:normal;word-spacing:normal;text-anchor:start;fill:#af1e2d;fill-opacity:1;stroke:none"
       d="m 280.32,627.05 0,-34.8 0,0 4.8,0 0,34.8 z"
       id="polygon150"
       inkscape:connector-curvature="0" />
    <path
       transform="matrix(1.3881777,0,0,-1.3881849,-66.142656,1017.7296)"
       style="font-style:normal;font-variant:normal;font-weight:normal;font-stretch:normal;letter-spacing:normal;word-spacing:normal;text-anchor:start;fill:#af1e2d;fill-opacity:1;fill-rule:nonzero;stroke:none"
       d="m 310.56,592.25 0,0 0,4.8 -12.48,0 0,11.52 7.2,0 0,4.8 -7.2,0 0,8.88 11.28,0 0,4.8 -16.32,0 0,-34.8 z"
       id="polygon152"
       inkscape:connector-curvature="0" />
    <path
       transform="matrix(1.3881777,0,0,-1.3881849,-66.142656,1017.7296)"
       style="font-style:normal;font-variant:normal;font-weight:normal;font-stretch:normal;letter-spacing:normal;word-spacing:normal;text-anchor:start;fill:#af1e2d;fill-opacity:1;fill-rule:nonzero;stroke:none"
       d="m 322.08,627.05 -5.04,0 0,-34.8 17.76,0 0,0 0,4.55 -12.72,0 z"
       id="polygon154"
       inkscape:connector-curvature="0" />
    <path
       id="path156"
       d="m 405.63313,147.2635 0,48.30909 13.63892,0 c 2.66539,0 4.99743,-0.64551 6.66348,-1.97853 4.66408,-3.65105 7.01051,-11.00843 7.01051,-22.34989 l -0.0347,-0.6941 0,-0.69409 -0.0347,-0.6941 -0.0347,-0.76355 -0.0694,-0.72877 -0.0694,-0.72877 -0.10412,-0.72877 -0.0694,-0.72877 -0.10411,-0.72877 -0.10412,-0.72877 -0.10412,-0.72877 -0.13881,-0.6941 -0.10412,-0.69409 -0.10411,-0.6594 -0.13882,-0.69409 -0.13882,-0.62469 c -0.99937,-4.99743 -2.99157,-8.65539 -5.65697,-10.65437 -1.66604,-1.34652 -3.65105,-2.01287 -7.98206,-2.01287 l -12.32019,0 z m 6.97595,6.66333 5.65694,0 c 3.33137,0 5.35166,1.66583 6.351,4.9975 0.99934,1.99897 1.31902,7.33663 1.31902,12.66726 l 0,0.76347 0,0.6941 -0.0347,0.72877 0,0.6941 -0.0694,0.69409 0,0.6594 -0.0694,0.65939 -0.0347,0.65939 -0.0347,0.62469 -0.0694,0.62468 -0.0694,0.62469 -0.0347,0.58998 -0.0694,0.58999 -0.0347,0.58998 -0.0694,0.58997 -0.0694,0.55529 c -0.66632,3.6648 -2.67907,6.97566 -7.01051,6.97566 l -5.65694,0 0,-34.98244 z"
       style="font-style:normal;font-variant:normal;font-weight:normal;font-stretch:normal;letter-spacing:normal;word-spacing:normal;text-anchor:start;fill:#af1e2d;fill-opacity:1;fill-rule:nonzero;stroke:none"
       inkscape:connector-curvature="0" />
  </g>
</svg>
