<?xml version="1.0" encoding="UTF-8" standalone="no"?>
<!-- Generator: Adobe Illustrator 12.0.1, SVG Export Plug-In  -->

<svg
   xmlns:dc="http://purl.org/dc/elements/1.1/"
   xmlns:cc="http://creativecommons.org/ns#"
   xmlns:rdf="http://www.w3.org/1999/02/22-rdf-syntax-ns#"
   xmlns:svg="http://www.w3.org/2000/svg"
   xmlns="http://www.w3.org/2000/svg"
   xmlns:sodipodi="http://sodipodi.sourceforge.net/DTD/sodipodi-0.dtd"
   xmlns:inkscape="http://www.inkscape.org/namespaces/inkscape"
   version="1.1"
   width="281.0625"
   height="281.0625"
   viewBox="-0.999 0 281.0625 281.0625"
   enable-background="new -0.999 0 289 289"
   xml:space="preserve"
   id="svg2"
   inkscape:version="0.48.2 r9819"
   sodipodi:docname="AJAX1.svg"><metadata
   id="metadata18"><rdf:RDF><cc:Work
       rdf:about=""><dc:format>image/svg+xml</dc:format><dc:type
         rdf:resource="http://purl.org/dc/dcmitype/StillImage" /></cc:Work></rdf:RDF></metadata><sodipodi:namedview
   pagecolor="#ffffff"
   bordercolor="#666666"
   borderopacity="1"
   objecttolerance="10"
   gridtolerance="10"
   guidetolerance="10"
   inkscape:pageopacity="0"
   inkscape:pageshadow="2"
   inkscape:window-width="1280"
   inkscape:window-height="1004"
   id="namedview16"
   showgrid="false"
   fit-margin-top="0"
   fit-margin-left="0"
   fit-margin-right="0"
   fit-margin-bottom="0"
   inkscape:zoom="1.1548595"
   inkscape:cx="152.6432"
   inkscape:cy="152.89458"
   inkscape:window-x="-8"
   inkscape:window-y="-8"
   inkscape:window-maximized="1"
   inkscape:current-layer="svg2" />
<defs
   id="defs4">
</defs>





<path
   inkscape:connector-curvature="0"
   d="m 279.3115,262.85264 c 0,9.61 -7.8625,17.4725 -17.4725,17.4725 l -244.62125,0 c -9.61,0 -17.4725,-7.8625 -17.4725,-17.4725 l 0,-244.621251 c 0,-9.6099997 7.8625,-17.47249974 17.4725,-17.47249974 l 244.62125,0 c 9.61,0 17.4725,7.86250004 17.4725,17.47249974 l 0,244.621251 z"
   style="fill:#ffffff;fill-opacity:1;fill-rule:nonzero;stroke:#000000;stroke-width:1.5;stroke-miterlimit:4;stroke-opacity:1;stroke-dasharray:none"
   id="path4259" /><path
   inkscape:connector-curvature="0"
   d="m 275.42874,140.54228 c 0,75.05625 -60.845,135.9 -135.9,135.9 -75.05625,0 -135.90125,-60.84375 -135.90125,-135.9 0,-75.056251 60.845,-135.9000007 135.90125,-135.9000007 75.055,0 135.9,60.8437497 135.9,135.9000007"
   style="fill:#bf2033;fill-opacity:1;fill-rule:nonzero;stroke:none"
   id="path4267" /><path
   inkscape:connector-curvature="0"
   d="m 23.04225,140.54227 c 0,7.97875 0.8025,15.77 2.33125,23.29751 l 228.31,0 c 1.5275,-7.52751 2.33125,-15.31876 2.33125,-23.29751 0,-7.97875 -0.80375,-15.77 -2.33125,-23.2975 l -228.31,0 c -1.5275,7.5275 -2.33125,15.31875 -2.33125,23.2975"
   style="fill:#ffffff;fill-opacity:1;fill-rule:nonzero;stroke:none"
   id="path4271" /><path
   inkscape:connector-curvature="0"
   d="m 60.02914,97.829379 -13.69,0 0,-38.82624 12.54,0 c 3.96875,0 5.46375,0.345 7.4775,2.01375 4.14125,3.50875 6.38375,9.72124 6.38375,17.31374 0,11.50375 -5.92375,19.49875 -12.71125,19.49875 m -0.6325,-32.67124 -6.9025,0 0,26.40124 6.7875,0 c 5.57875,0 7.2475,-7.88 7.2475,-13.22875 0,-4.4875 -0.92,-13.17249 -7.1325,-13.17249"
   style="fill:#ffffff;fill-opacity:1;fill-rule:nonzero;stroke:none"
   id="path4275" /><path
   inkscape:connector-curvature="0"
   d="m 103.80126,94.148129 c -2.24375,2.93375 -5.29125,4.37125 -9.37625,4.37125 -5.46375,0 -8.8,-2.185 -11.15875,-6.96 -1.61,-3.27875 -2.76,-8.455 -2.76,-13.05625 0,-6.4425 1.61,-12.19499 4.25625,-15.81874 2.2425,-3.0475 5.46375,-4.37125 9.95125,-4.37125 10.75625,0 13.34375,11.50374 13.34375,20.18999 0,6.09625 -1.5525,12.19375 -4.25625,15.645 m -9.0875,-29.56499 c -3.45125,0 -5.0625,1.38 -6.4425,4.77374 -0.92,2.30125 -1.49625,5.8675 -1.49625,9.14625 0,4.08375 0.86375,8.2825 2.35875,10.75625 1.2075,2.0125 2.81875,2.99125 5.29125,2.99125 2.87625,0 4.66,-1.49625 5.9825,-4.89 0.805,-2.07 1.49625,-5.8675 1.49625,-8.8575 0,-4.4875 -0.97875,-13.91999 -7.19,-13.91999"
   style="fill:#ffffff;fill-opacity:1;fill-rule:nonzero;stroke:none"
   id="path4279" /><path
   inkscape:connector-curvature="0"
   d="m 165.16813,97.829379 -14.84,-26.28625 0,26.28625 -6.155,0 0,-38.82624 6.155,0 14.15,24.79124 0,-24.79124 6.0975,0 0,38.82624 -5.4075,0 z"
   style="fill:#ffffff;fill-opacity:1;fill-rule:nonzero;stroke:none"
   id="path4283" /><path
   inkscape:connector-curvature="0"
   d="m 202.38313,94.148129 c -2.24375,2.93375 -5.29125,4.37125 -9.37625,4.37125 -5.46375,0 -8.8,-2.185 -11.15875,-6.96 -1.61,-3.27875 -2.76,-8.455 -2.76,-13.05625 0,-6.4425 1.61,-12.19499 4.25625,-15.81874 2.2425,-3.0475 5.46375,-4.37125 9.95,-4.37125 10.75625,0 13.345,11.50374 13.345,20.18999 0,6.09625 -1.5525,12.19375 -4.25625,15.645 m -9.08875,-29.56499 c -3.45,0 -5.06125,1.38 -6.44125,4.77374 -0.92125,2.30125 -1.49625,5.8675 -1.49625,9.14625 0,4.08375 0.8625,8.2825 2.35875,10.75625 1.2075,2.0125 2.81875,2.99125 5.29125,2.99125 2.87625,0 4.66,-1.49625 5.9825,-4.89 0.805,-2.07 1.49625,-5.8675 1.49625,-8.8575 0,-4.4875 -0.97875,-13.91999 -7.19125,-13.91999"
   style="fill:#ffffff;fill-opacity:1;fill-rule:nonzero;stroke:none"
   id="path4287" /><path
   inkscape:connector-curvature="0"
   d="m 226.65625,64.467759 0,33.36124 -6.155,0 0,-33.36124 -8.8575,0 0,-5.465 23.985,0 0,5.465 -8.9725,0 z"
   style="fill:#ffffff;fill-opacity:1;fill-rule:nonzero;stroke:none"
   id="path4291" /><path
   inkscape:connector-curvature="0"
   d="m 63.22861,222.081 0,-38.82625 22.8925,0 0,6.155 -16.7375,0 0,9.49125 11.27375,0 0,6.26875 -11.27375,0 0,10.64125 17.94625,0 0,6.27 -24.10125,0 z"
   style="fill:#ffffff;fill-opacity:1;fill-rule:nonzero;stroke:none"
   id="path4295" /><path
   inkscape:connector-curvature="0"
   d="m 115.62924,222.081 -14.84,-26.28625 0,26.28625 -6.155,0 0,-38.82625 6.155,0 14.15,24.79125 0,-24.79125 6.0975,0 0,38.82625 -5.4075,0 z"
   style="fill:#ffffff;fill-opacity:1;fill-rule:nonzero;stroke:none"
   id="path4299" /><path
   inkscape:connector-curvature="0"
   d="m 142.54825,188.71963 0,33.36125 -6.155,0 0,-33.36125 -8.8575,0 0,-5.46375 23.985,0 0,5.46375 -8.9725,0 z"
   style="fill:#ffffff;fill-opacity:1;fill-rule:nonzero;stroke:none"
   id="path4303" /><path
   inkscape:connector-curvature="0"
   d="m 158.0205,222.081 0,-38.82625 22.8925,0 0,6.155 -16.7375,0 0,9.49125 11.27375,0 0,6.26875 -11.27375,0 0,10.64125 17.94625,0 0,6.27 -24.10125,0 z"
   style="fill:#ffffff;fill-opacity:1;fill-rule:nonzero;stroke:none"
   id="path4307" /><path
   inkscape:connector-curvature="0"
   d="m 209.15563,222.081 -6.27,-16.91125 -7.305,0 0,16.91125 -6.15375,0 0,-38.82625 14.09125,0 c 8.91625,0 11.505,7.1325 11.505,10.87125 0,4.1425 -2.41625,8.22625 -5.9825,9.83625 l 6.7875,18.11875 -6.6725,0 z m -5.4075,-32.67125 -8.1675,0 0,9.49125 8.11125,0 c 2.99,0 5.23375,-2.12875 5.23375,-4.775 0,-2.53 -2.18625,-4.71625 -5.1775,-4.71625"
   style="fill:#ffffff;fill-opacity:1;fill-rule:nonzero;stroke:none"
   id="path4311" /></svg>