<?xml version="1.0" encoding="UTF-8" standalone="no"?>
<!-- Created with Inkscape (http://www.inkscape.org/) -->

<svg
   xmlns:dc="http://purl.org/dc/elements/1.1/"
   xmlns:cc="http://creativecommons.org/ns#"
   xmlns:rdf="http://www.w3.org/1999/02/22-rdf-syntax-ns#"
   xmlns:svg="http://www.w3.org/2000/svg"
   xmlns="http://www.w3.org/2000/svg"
   xmlns:sodipodi="http://sodipodi.sourceforge.net/DTD/sodipodi-0.dtd"
   xmlns:inkscape="http://www.inkscape.org/namespaces/inkscape"
   width="90.6875"
   height="90.6875"
   id="svg2"
   sodipodi:version="0.32"
   inkscape:version="0.48.2 r9819"
   version="1.0"
   sodipodi:docname="MUTCD R8-2.svg"
   inkscape:output_extension="org.inkscape.output.svg.inkscape">
  <defs
     id="defs4">
    <inkscape:perspective
       sodipodi:type="inkscape:persp3d"
       inkscape:vp_x="0 : 300.5 : 1"
       inkscape:vp_y="0 : 1000 : 0"
       inkscape:vp_z="601 : 300.5 : 1"
       inkscape:persp3d-origin="300.5 : 200.33333 : 1"
       id="perspective3380" />
    <inkscape:perspective
       id="perspective3990"
       inkscape:persp3d-origin="375 : 250 : 1"
       inkscape:vp_z="750 : 375 : 1"
       inkscape:vp_y="0 : 1000 : 0"
       inkscape:vp_x="0 : 375 : 1"
       sodipodi:type="inkscape:persp3d" />
  </defs>
  <sodipodi:namedview
     id="base"
     pagecolor="#ffffff"
     bordercolor="#666666"
     borderopacity="1.0"
     gridtolerance="10000"
     guidetolerance="10"
     objecttolerance="10"
     inkscape:pageopacity="0.0"
     inkscape:pageshadow="2"
     inkscape:zoom="3.639243"
     inkscape:cx="27.055436"
     inkscape:cy="16.612076"
     inkscape:document-units="px"
     inkscape:current-layer="layer1"
     width="601px"
     height="601px"
     inkscape:window-width="1280"
     inkscape:window-height="1004"
     inkscape:window-x="-8"
     inkscape:window-y="-8"
     showgrid="false"
     fit-margin-top="0"
     fit-margin-left="0"
     fit-margin-right="0"
     fit-margin-bottom="0"
     inkscape:window-maximized="1" />
  <metadata
     id="metadata7">
    <rdf:RDF>
      <cc:Work
         rdf:about="">
        <dc:format>image/svg+xml</dc:format>
        <dc:type
           rdf:resource="http://purl.org/dc/dcmitype/StillImage" />
        <dc:title></dc:title>
      </cc:Work>
    </rdf:RDF>
  </metadata>
  <g
     inkscape:label="Layer 1"
     inkscape:groupmode="layer"
     id="layer1"
     transform="translate(-564.59375,1848)">
    <rect
       style="color:#000000;fill:#000000;fill-opacity:1;fill-rule:nonzero;stroke:none;stroke-width:0.8735441;marker:none;visibility:visible;display:inline;overflow:visible"
       id="rect3653"
       width="0"
       height="27.202072"
       x="578.73834"
       y="298.1684"
       rx="249.48199"
       ry="27.202072" />
    <path
       inkscape:connector-curvature="0"
       d="m 570.5605,-1847.6483 78.75,0 c 3.09875,0 5.625,2.5262 5.625,5.625 l 0,78.75 c 0,3.0976 -2.52625,5.625 -5.625,5.625 l -78.75,0 c -3.0975,0 -5.625,-2.5274 -5.625,-5.625 l 0,-78.75 c 0,-3.0588 2.56625,-5.625 5.625,-5.625"
       style="fill:#ffffff;fill-opacity:1;fill-rule:nonzero;stroke:#000000;stroke-width:0.69999999;stroke-linecap:butt;stroke-linejoin:miter;stroke-miterlimit:4;stroke-opacity:1;stroke-dasharray:none"
       id="path3553" />
    <path
       inkscape:connector-curvature="0"
       style="fill:#000000;fill-opacity:1;fill-rule:evenodd;stroke:none"
       d="m 570.5625,-1846.25 c -2.315,0 -4.21625,1.935 -4.21875,4.25 l 0,78.7188 c 0.005,2.3187 1.90375,4.21 4.21875,4.2187 l 78.71875,0 c 2.31625,-0.01 4.24125,-1.9 4.25,-4.2187 l 0,-78.7188 c -0.009,-2.315 -1.93375,-4.2463 -4.25,-4.25 l -78.71875,0 z m 0.0312,2.3437 78.65625,0 c 1.0575,-0.015 1.955,0.8788 1.9375,1.9375 l 0,78.6563 c 0.0175,1.0562 -0.88,1.925 -1.9375,1.9063 l -78.65625,0 c -1.05625,0.019 -1.92,-0.8501 -1.90625,-1.9063 l 0,-78.6563 c -0.0138,-1.0587 0.85,-1.9525 1.90625,-1.9375 z"
       id="path3557" />
    <path
       inkscape:connector-curvature="0"
       d="m 623.598,-1811.5113 c 0,3.3163 -2.6825,5.5263 -6.63125,5.5263 l -13.105,0 0,-11.21 13.105,0 c 3.94875,0 6.63125,2.21 6.63125,5.6837 m 8.05375,0 c 0,-5.0525 -2.685,-9.4737 -6.9475,-11.8425 -2.5275,-1.42 -4.58,-1.8937 -8.0525,-1.8937 l -21,0 0,44.9987 8.21,0 0,-17.6825 12.79,0 c 3.4725,0 5.525,-0.3162 8.0525,-1.7375 4.2625,-2.3675 6.9475,-7.105 6.9475,-11.8425"
       style="fill:#000000;fill-opacity:1;fill-rule:evenodd;stroke:none"
       id="path3565" />
    <path
       inkscape:connector-curvature="0"
       d="m 582.09426,-1830.4908 c 15.33376,-15.335 40.34875,-15.335 55.68375,0 15.33375,15.3351 15.33375,40.35 0,55.6838 -15.335,15.3364 -40.34999,15.3364 -55.68376,0 -15.3375,-15.3338 -15.3375,-40.3487 0,-55.6838 m 47.56375,52.8477 c -12.50249,9.86 -30.90374,8.8912 -42.26123,-2.4664 -11.35751,-11.3575 -12.32626,-29.7588 -2.46625,-42.26 l 44.72748,44.7264 z m 5.29251,-5.2926 c 9.86125,-12.5026 8.89126,-30.905 -2.46625,-42.2626 -11.35751,-11.3575 -29.7575,-12.325 -42.26,-2.4649 l 44.72625,44.7275 z"
       style="fill:#bf2033;fill-opacity:1;fill-rule:evenodd;stroke:none"
       id="path3569" />
  </g>
</svg>
