<?xml version="1.0" encoding="UTF-8" standalone="no"?>
<svg
   xmlns:dc="http://purl.org/dc/elements/1.1/"
   xmlns:cc="http://creativecommons.org/ns#"
   xmlns:rdf="http://www.w3.org/1999/02/22-rdf-syntax-ns#"
   xmlns:svg="http://www.w3.org/2000/svg"
   xmlns="http://www.w3.org/2000/svg"
   xmlns:sodipodi="http://sodipodi.sourceforge.net/DTD/sodipodi-0.dtd"
   xmlns:inkscape="http://www.inkscape.org/namespaces/inkscape"
   width="90"
   height="89.992096"
   viewBox="0 0 254.00007 253.97768"
   version="1.1"
   id="svg2"
   inkscape:version="0.48.2 r9819"
   sodipodi:docname="AJAX1.svg">
  <metadata
     id="metadata62">
    <rdf:RDF>
      <cc:Work
         rdf:about="">
        <dc:format>image/svg+xml</dc:format>
        <dc:type
           rdf:resource="http://purl.org/dc/dcmitype/StillImage" />
        <dc:title />
      </cc:Work>
    </rdf:RDF>
  </metadata>
  <defs
     id="defs60" />
  <sodipodi:namedview
     pagecolor="#ffffff"
     bordercolor="#666666"
     borderopacity="1"
     objecttolerance="10"
     gridtolerance="10"
     guidetolerance="10"
     inkscape:pageopacity="0"
     inkscape:pageshadow="2"
     inkscape:window-width="1280"
     inkscape:window-height="1004"
     id="namedview58"
     showgrid="false"
     fit-margin-top="0"
     fit-margin-left="0"
     fit-margin-right="0"
     fit-margin-bottom="0"
     inkscape:zoom="5.6568542"
     inkscape:cx="59.114527"
     inkscape:cy="42.065775"
     inkscape:window-x="-8"
     inkscape:window-y="-8"
     inkscape:window-maximized="1"
     inkscape:current-layer="svg2"
     showguides="true"
     inkscape:guide-bbox="true" />
  <!-- draw the bicycle -->
  <!-- RIGHT -->
  <!-- LANE -->
  <!-- ONLY -->
  <path
     inkscape:connector-curvature="0"
     d="M 135.22681,250.564 250.56754,135.2268 c 2.16605,-2.16605 3.43253,-5.16467 3.43253,-8.23383 0,-3.07623 -1.26648,-6.06778 -3.43253,-8.24442 L 135.22681,3.4113484 c -2.17311,-2.17664 -5.15761,-3.41841004 -8.24089,-3.411360043579 -3.06917,0 -6.07131,1.234720043579 -8.23383,3.411360043579 L 3.40431,118.74855 C 1.24531,120.91108 0,123.93791 0,126.99297 c 0,3.05152 1.24531,6.07483 3.40431,8.23383 L 118.75209,250.564 c 2.794,2.79753 6.99911,3.99697 10.85144,3.14325 2.26837,-0.51858 3.84528,-1.70392 5.62328,-3.14325"
     style="fill:#fecf33;fill-opacity:1;fill-rule:nonzero;stroke:none"
     id="path3438" />
  <path
     inkscape:connector-curvature="0"
     d="M 120.81934,248.51755 5.45745,133.15566 c -1.60514,-1.60514 -2.53295,-3.88409 -2.53295,-6.16303 0,-2.27189 0.92781,-4.58259 2.53295,-6.18773 L 120.81934,5.4571284 c 1.6263,-1.61925 3.85939,-2.52942 6.1595,-2.52942 2.31069,0 4.56847,0.91017 6.19831,2.52942 L 248.51434,120.8049 c 1.61925,1.61925 2.55411,3.89114 2.55411,6.18773 0,2.29305 -0.93486,4.54378 -2.55411,6.16303 L 133.17715,248.51755 c -1.61573,1.60514 -3.92289,2.52942 -6.19831,2.52942 -2.26836,0 -4.54731,-0.92428 -6.1595,-2.52942"
     style="fill:#000000;fill-opacity:1;fill-rule:evenodd;stroke:none"
     id="path3462" />
  <path
     inkscape:connector-curvature="0"
     d="m 124.2441,245.07302 c 0.70909,0.70203 1.74273,1.12184 2.74462,1.12889 1.00541,0 2.032,-0.4198 2.73755,-1.12889 L 245.08464,129.7323 c 0.73025,-0.71967 1.11477,-1.72508 1.11477,-2.73756 0,-1.02658 -0.38452,-2.02141 -1.11477,-2.74461 L 129.72627,8.9129384 c -0.70555,-0.71261 -1.73214,-1.143 -2.73755,-1.13595 -1.00189,0 -2.03553,0.42334 -2.74462,1.13595 L 8.91044,124.25013 c -0.7232,0.71614 -1.13242,1.72861 -1.13948,2.74461 -0.007,1.03364 0.40923,2.00378 1.13948,2.73756 L 124.2441,245.07302 z"
     style="fill:#fecf33;fill-opacity:1;fill-rule:evenodd;stroke:none"
     id="path3466" />
  <path
     inkscape:connector-curvature="0"
     d="m 140.70122,155.27977 -0.0811,39.65223 -27.20623,-0.067 0,-96.622321 -15.05656,4.660191 c -0.55033,0.17286 -1.09361,0.31397 -1.66864,0.34572 -1.50283,0.0847 -3.03036,-0.54681 -4.09222,-1.61572 -1.22414,-1.24884 -1.72861,-3.033891 -1.45697,-4.755441 0.14111,-0.87489 0.5468,-1.60867 1.06539,-2.3107 l 34.76626,-47.21579 34.8615,47.21579 c 0.71614,0.96661 1.12184,2.11314 1.12184,3.31964 0,2.204861 -1.28411,4.138081 -3.30553,5.016501 -1.09714,0.47272 -2.09903,0.51505 -3.22792,0.26811 -0.29633,-0.067 -0.59267,-0.23283 -0.74083,-0.26811 l -15.40934,-3.319641 c 1.21356,5.341061 2.42358,10.703281 3.95464,15.966721 2.26483,7.79287 5.21053,15.38112 8.61836,22.74712 3.37609,7.27781 7.21431,14.34395 11.63109,21.03967 2.92806,4.43795 6.1207,8.71714 9.2957,12.97517 l -14.97895,10.8197 c -1.34056,-1.75331 -2.68111,-3.50308 -3.98286,-5.28814 -3.00214,-4.09928 -5.8032,-8.35731 -8.45962,-12.68942 -1.98261,-3.23144 -3.82411,-6.5405 -5.64797,-9.87425"
     style="fill:#000000;fill-opacity:1;fill-rule:evenodd;stroke:none"
     id="path3470" />
</svg>
