<?xml version="1.0" encoding="UTF-8" standalone="no"?>
<svg
   xmlns:dc="http://purl.org/dc/elements/1.1/"
   xmlns:cc="http://creativecommons.org/ns#"
   xmlns:rdf="http://www.w3.org/1999/02/22-rdf-syntax-ns#"
   xmlns:svg="http://www.w3.org/2000/svg"
   xmlns="http://www.w3.org/2000/svg"
   xmlns:sodipodi="http://sodipodi.sourceforge.net/DTD/sodipodi-0.dtd"
   xmlns:inkscape="http://www.inkscape.org/namespaces/inkscape"
   width="89.999062"
   height="90.00563"
   viewBox="0 0 253.99739 254.01588"
   version="1.1"
   id="svg2"
   inkscape:version="0.48.2 r9819"
   sodipodi:docname="AJAX1.svg">
  <metadata
     id="metadata62">
    <rdf:RDF>
      <cc:Work
         rdf:about="">
        <dc:format>image/svg+xml</dc:format>
        <dc:type
           rdf:resource="http://purl.org/dc/dcmitype/StillImage" />
        <dc:title></dc:title>
      </cc:Work>
    </rdf:RDF>
  </metadata>
  <defs
     id="defs60" />
  <sodipodi:namedview
     pagecolor="#ffffff"
     bordercolor="#666666"
     borderopacity="1"
     objecttolerance="10"
     gridtolerance="10"
     guidetolerance="10"
     inkscape:pageopacity="0"
     inkscape:pageshadow="2"
     inkscape:window-width="1280"
     inkscape:window-height="1004"
     id="namedview58"
     showgrid="false"
     fit-margin-top="0"
     fit-margin-left="0"
     fit-margin-right="0"
     fit-margin-bottom="0"
     inkscape:zoom="5.8194445"
     inkscape:cx="37.23858"
     inkscape:cy="61.338885"
     inkscape:window-x="-8"
     inkscape:window-y="-8"
     inkscape:window-maximized="1"
     inkscape:current-layer="svg2"
     showguides="true"
     inkscape:guide-bbox="true" />
  <!-- draw the bicycle -->
  <!-- RIGHT -->
  <!-- LANE -->
  <!-- ONLY -->
  <path
     inkscape:connector-curvature="0"
     d="M 3.63273,118.20263 118.18675,3.6379998 c 4.84716,-4.8507 12.77761,-4.8507 17.62478,0 L 250.36201,118.20263 c 4.84717,4.84364 4.84717,12.77408 0,17.62478 L 135.81153,250.37789 c -4.84717,4.8507 -12.77762,4.8507 -17.62478,0 L 3.63273,135.82741 c -4.84364,-4.8507 -4.84364,-12.78114 0,-17.62478"
     style="fill:#fecf33;fill-opacity:1;fill-rule:nonzero;stroke:none"
     id="path5867" />
  <path
     inkscape:connector-curvature="0"
     d="M 6.39569,120.02158 120.00778,6.4023998 c 3.84528,-3.8453 10.13531,-3.8453 13.98412,0 L 247.60047,120.02158 c 3.84528,3.84528 3.84528,10.13531 0,13.98058 L 133.9919,247.61426 c -3.84881,3.84528 -10.13884,3.84528 -13.98412,0 L 6.39569,134.00216 c -3.84528,-3.84527 -3.84528,-10.1353 0,-13.98058"
     style="fill:#000000;fill-opacity:1;fill-rule:evenodd;stroke:none"
     id="path5891" />
  <path
     inkscape:connector-curvature="0"
     d="M 9.94746,123.52184 123.50311,9.9520998 c 1.91911,-1.9227 5.06942,-1.9227 6.98853,0 L 244.04729,123.52184 c 1.92264,1.92264 1.92264,5.06589 0,6.985 L 130.49164,244.06602 c -1.91911,1.92264 -5.06942,1.92264 -6.98853,0 L 9.94746,130.50684 c -1.92264,-1.91911 -1.92264,-5.06236 0,-6.985"
     style="fill:#fecf33;fill-opacity:1;fill-rule:evenodd;stroke:none"
     id="path5895" />
  <path
     d="m 86.581727,140.59907 c -0.557389,0.13053 -2.952751,-4.191 -5.930195,-6.69573 -1.347612,-1.13947 -1.118306,-1.16063 -1.19239,-3.45369 -0.169333,-5.29872 0.896056,-5.22111 -2.3495,-10.93964 -0.299861,-0.52917 -1.527528,-2.55059 -0.889,-3.67947 0.402167,-0.71967 0.818444,-1.22062 1.118306,-1.71098 1.185333,-1.95086 2.617611,-0.91722 4.660195,-0.41275 3.189111,0.78317 7.694084,2.12373 10.675057,3.20675 0.867833,-4.17689 1.710972,-7.88458 3.750028,-11.01372 3.587752,-5.50333 2.737556,-3.98992 2.377723,-10.664473 -0.148167,-2.758723 0.0035,-5.369279 0.437444,-8.103307 -0.723194,-1.770945 -3.019778,-2.310695 -4.741334,-2.353028 -0.582083,-0.01778 -1.989667,-1.016 -2.472972,-1.499306 -0.497417,-0.504472 -1.947334,-0.225778 -2.328334,-1.033639 -0.522111,-1.097139 -0.419806,-1.901473 0.141111,-2.550584 0.296333,-0.342194 0.709084,-0.652639 1.202973,-0.927806 0.490361,-0.282222 1.065389,-0.536222 1.668639,-0.762 2.028472,-0.762 4.47675,-1.266472 5.866695,-1.7145 3.817057,-1.044222 4.716637,-0.956028 8.826497,-1.273528 2.06728,-0.15875 2.69523,-0.716139 3.7077,-1.502833 0.78669,-0.610306 1.66158,-1.562806 1.4605,-2.691695 -0.19756,-1.132417 -1.64747,-1.524001 -3.47486,-1.291167 -3.01625,0.395111 -6.78392,1.068917 -9.0417,-1.686278 -1.382887,-1.689806 -1.178276,-2.709334 -1.763887,-4.060473 0.578556,1.023056 1.982607,2.924528 3.626557,3.905251 1.41111,0.843139 2.94217,1.185333 4.08869,0.493889 1.41464,-0.857251 -1.76036,-2.776362 -0.0705,-6.092474 -0.49741,4.480279 4.11339,6.028974 6.06425,5.111751 2.52589,-1.181806 1.03012,-9.433279 -2.61055,-11.200696 4.04636,0.0071 4.36033,4.360334 5.41867,7.217834 0.58914,1.587501 2.14841,1.139473 3.00214,-0.02469 1.6263,-2.211921 3.49602,-7.221366 -1.58398,-11.052533 4.05342,1.569861 5.66914,4.47675 4.53672,8.865306 -1.84855,4.554362 -6.25828,8.54428 -6.83683,13.670141 1.56986,-1.128889 3.14325,-1.471083 5.1435,-0.811389 -1.70392,2.719917 -1.83092,4.243918 -4.93889,5.147029 0.23636,3.037417 0.67733,6.159501 0.0141,9.151057 -0.39511,1.756833 -0.56797,2.585861 -0.36689,4.166306 1.08303,8.558385 -0.40217,9.944805 7.72936,19.371035 3.25967,3.78177 8.46667,5.35163 12.6365,8.22677 2.91748,2.01084 3.54189,2.22956 7.05203,2.76931 5.8667,0.90311 8.42434,1.15711 13.3985,6.12422 3.683,-0.32455 4.57553,-1.93675 5.76087,-2.90689 1.45697,-2.04611 2.20133,-4.16277 2.23308,-7.85283 1.74625,1.76742 3.01272,4.06047 3.31611,6.15597 0.28928,2.01436 -0.96661,3.35139 -2.84339,4.81189 -2.06728,1.35114 -3.77825,2.70581 -6.63222,2.76931 0.93839,2.73403 1.3088,5.32694 0.6738,7.99042 -0.39863,6.26533 -4.07105,11.37355 1.08303,17.04975 2.19075,2.77989 6.04309,6.16303 6.5652,8.33261 0.52564,2.16959 -0.74084,4.80836 0.0705,13.33148 0.90311,2.06727 0.0178,2.85397 3.99344,5.13997 0.0882,1.94381 0.17992,3.88056 0.27164,5.82436 -3.38314,-1.35819 -4.0393,-3.14325 -5.54919,-4.26508 -3.72886,-2.77284 -3.75709,-6.69925 -4.09928,-15.02128 -0.254,-6.32531 -17.50484,-15.81503 -19.93195,-18.61962 -2.7058,-3.13619 -3.38314,-6.95325 -5.91255,-8.92528 -9.0417,-7.03439 -23.61848,-4.36033 -35.574122,-12.11792 -1.509889,-0.61383 -3.298473,-0.94544 -4.81189,-1.55222 -3.517195,-2.3495 -5.930195,-5.79967 -10.279945,-7.31661 0.892527,3.59128 0.673805,6.63575 1.016,9.94833 0.423333,2.15901 2.801056,2.45887 3.316111,4.12751 -0.137583,0.81491 -0.271639,1.6263 -0.409222,2.44122 -0.08819,0.81139 0.370417,2.286 -0.268111,2.43064"
     style="fill:#000000;fill-opacity:1;fill-rule:evenodd;stroke:none"
     id="path5727"
     inkscape:connector-curvature="0" />
</svg>
